<?xml version="1.0" encoding="iso-8859-1"?>
<!-- Generator: Adobe Illustrator 19.0.0, SVG Export Plug-In . SVG Version: 6.00 Build 0)  -->
<svg version="1.1" id="Layer_1" xmlns="http://www.w3.org/2000/svg" xmlns:xlink="http://www.w3.org/1999/xlink" x="0px" y="0px"
	 viewBox="0 0 503.467 503.467" style="enable-background:new 0 0 503.467 503.467;" xml:space="preserve">
<g transform="translate(1 4)">
	<path style="fill:#50DD8E;" d="M357.4,56.373c0,0,11.093,34.133-16.213,64c-0.853,0.853-1.707,1.707-2.56,2.56
		c-29.867,29.867-78.507,29.867-108.373,0l-0.853-0.853c-29.013-29.867-17.067-65.707-17.067-65.707s27.307-2.56,46.933,11.947
		c4.267-23.04,25.6-41.813,25.6-41.813s22.187,18.773,25.6,41.813C331.8,52.96,357.4,56.373,357.4,56.373"/>
	<path style="fill:#FF7474;" d="M319,298.72h59.733c0,79.36-58.88,145.067-139.093,164.693c-15.36,4.267-32.427,5.973-48.64,5.973
		C87.747,469.386,3.267,393.44,3.267,298.72H63h1.707c-4.267,11.947-9.387,36.693,8.533,68.267s45.227,34.133,58.88,34.133
		c5.973,11.093,23.893,34.133,59.733,34.133c35.84,0,53.76-23.04,59.733-34.133c12.8-0.853,40.107-2.56,58.88-34.133
		c17.92-30.72,12.8-55.467,8.533-67.413V298.72z"/>
	<path style="fill:#FFD0A1;" d="M318.147,299.573c4.267,11.947,9.387,36.693-8.533,68.267c-17.92,31.573-46.08,33.28-58.88,34.133
		c-5.973,11.093-23.893,34.133-59.733,34.133c-35.84,0-53.76-23.04-59.733-34.133c-12.8,0-40.107-2.56-58.88-34.133
		c-17.92-31.573-12.8-56.32-8.533-68.267h9.387H191H318.147C317.293,298.72,317.293,298.72,318.147,299.573"/>
	<path style="fill:#FF7474;" d="M191,126.346c0,0,18.773-3.413,38.4-3.413l0.853-0.853l0.853,0.853
		c29.867,29.867,78.507,29.867,108.373,0c0.853-0.853,1.707-1.707,2.56-2.56c88.747,0,157.013,52.053,157.013,161.28
		c0,100.693-70.827,173.227-178.347,186.027c0,0-17.92,1.707-34.987,1.707c-17.067,0-45.227-5.12-45.227-5.12v-0.853
		c80.213-19.627,139.093-86.187,139.093-164.693h-59.733L319,299.573c0,0,0,0,0-0.853H191H73.24v-0.853
		c-2.56-12.8-1.707-33.28-1.707-33.28C76.653,181.813,119.32,135.733,191,126.346"/>
</g>
<path style="fill:#51565F;" d="M192,477.653c-105.813,0-192-78.507-192-174.933c0-2.56,1.707-4.267,4.267-4.267h61.44
	c1.707,0,2.56,0.853,3.413,1.707c0.853,0.853,0.853,2.56,0.853,4.267c-4.267,11.093-9.387,34.987,7.68,64.853
	c11.947,21.333,30.72,32.427,54.613,32.427c1.707,0,3.413,0.853,3.413,2.56c4.267,7.68,19.627,31.573,56.32,31.573
	c36.693,0,52.053-24.747,56.32-31.573c0.853-1.707,1.707-2.56,3.413-2.56c11.093-0.853,37.547-1.707,55.467-32.427
	c16.213-27.307,12.8-49.493,9.387-62.293H99.84c-2.56,0-4.267-1.707-4.267-4.267s1.707-4.267,4.267-4.267H320
	c1.707,0,3.413,0.853,4.267,2.56c5.12,12.8,10.24,39.253-8.533,71.68C296.96,404.267,268.8,407.68,256,408.533
	c-5.973,10.24-23.893,34.133-62.293,34.133c-37.547,0-56.32-23.893-62.293-34.133c-25.6-0.853-46.08-13.653-59.733-35.84
	c-16.213-28.16-14.507-52.053-10.24-66.56h-51.2c2.56,89.6,83.627,162.133,183.467,162.133c99.84,0,180.907-72.533,183.467-162.133
	H355.84c-2.56,0-4.267-1.707-4.267-4.267c0-2.56,1.707-4.267,4.267-4.267h25.6c2.56,0,4.267,1.707,4.267,4.267
	C384,399.147,297.813,477.653,192,477.653z M320.853,475.947c-2.56,0-4.267-1.707-4.267-3.413c0-2.56,1.707-4.267,3.413-5.12
	c106.667-12.8,174.933-83.627,174.933-181.76s-56.32-156.16-151.04-157.013l-0.853,0.853c-15.36,15.36-35.84,23.893-57.173,23.893
	c-21.333,0-41.813-8.533-57.173-23.893c-31.573-31.573-19.627-69.12-18.773-70.827c0.853-1.707,1.707-2.56,3.413-2.56
	c0.853,0,24.747-2.56,44.373,9.387c6.827-21.333,24.747-37.547,25.6-38.4c1.707-1.707,4.267-1.707,5.973,0
	c0.853,0.853,19.627,17.067,25.6,38.4c21.333-11.947,43.52-9.387,44.373-9.387c1.707,0,2.56,1.707,3.413,2.56
	c0.853,1.707,10.24,32.427-11.093,61.44c93.867,3.413,151.893,66.56,151.893,165.547
	C503.467,388.053,431.787,463.147,320.853,475.947L320.853,475.947z M216.747,64.64c-1.707,8.533-5.973,35.84,17.92,58.88
	c13.653,13.653,32.427,21.333,51.2,21.333c19.627,0,37.547-7.68,51.2-21.333c0.853-0.853,1.707-1.707,1.707-1.707l0,0
	c21.333-23.04,17.067-48.64,15.36-57.173c-6.827,0-25.6,0-40.96,11.093c-0.853,0.853-2.56,0.853-4.267,0.853
	c-1.707-0.853-2.56-1.707-2.56-3.413c-2.56-16.213-15.36-30.72-21.333-36.693c-5.973,5.973-18.773,20.48-21.333,36.693
	c0,1.707-0.853,2.56-2.56,3.413s-2.56,0-4.267-0.853C243.2,64.64,223.573,64.64,216.747,64.64z M73.387,272.853
	C72.533,272.853,72.533,272.853,73.387,272.853c-2.56,0-4.267-2.56-4.267-4.267C74.24,185.813,116.053,136.32,192,126.08
	c2.56,0,4.267,1.707,5.12,3.413c0,2.56-1.707,4.267-3.413,5.12c-71.68,9.387-110.933,54.613-115.2,134.827
	C76.8,271.146,75.093,272.853,73.387,272.853z M460.8,264.32c-1.707,0-3.413-1.707-4.267-3.413
	c-6.827-27.307-14.507-50.347-36.693-65.707c-1.707-1.707-2.56-4.267-0.853-5.973s4.267-2.56,5.973-0.853
	c24.747,17.067,32.427,42.667,40.107,70.827c0.853,2.56-0.853,4.267-3.413,5.12C460.8,264.32,460.8,264.32,460.8,264.32z
	 M388.267,175.573h-0.853l-17.067-4.267c-2.56-0.853-3.413-2.56-3.413-5.12c0.853-2.56,2.56-3.413,5.12-3.413l17.067,4.267
	c2.56,0.853,3.413,2.56,3.413,5.12C391.68,173.866,389.973,175.573,388.267,175.573z"/>
<g>
</g>
<g>
</g>
<g>
</g>
<g>
</g>
<g>
</g>
<g>
</g>
<g>
</g>
<g>
</g>
<g>
</g>
<g>
</g>
<g>
</g>
<g>
</g>
<g>
</g>
<g>
</g>
<g>
</g>
</svg>
